<svg width="26" height="15" viewBox="0 0 26 15" fill="none" xmlns="http://www.w3.org/2000/svg">
<path d="M1.06753 14.0757C1.41914 14.4272 1.89597 14.6246 2.39315 14.6246C2.89034 14.6246 3.36716 14.4272 3.71878 14.0757L13 4.7944L22.2813 14.0757C22.6349 14.4172 23.1085 14.6062 23.6002 14.6019C24.0918 14.5976 24.5621 14.4005 24.9097 14.0528C25.2573 13.7052 25.4545 13.2349 25.4588 12.7433C25.4631 12.2517 25.2741 11.778 24.9325 11.4244L14.3257 0.817529C13.974 0.466021 13.4972 0.268555 13 0.268555C12.5028 0.268555 12.026 0.466021 11.6744 0.817529L1.06753 11.4244C0.716021 11.776 0.518555 12.2528 0.518555 12.75C0.518555 13.2472 0.716021 13.724 1.06753 14.0757Z" fill="#007AC6"/>
</svg>
